<?xml version="1.0" encoding="utf-8"?>
<!-- Generator: Adobe Illustrator 19.0.0, SVG Export Plug-In . SVG Version: 6.00 Build 0)  -->
<svg version="1.1" id="Calque_1" xmlns="http://www.w3.org/2000/svg" xmlns:xlink="http://www.w3.org/1999/xlink" x="0px" y="0px"
	 viewBox="-333.6 938 638.2 638.2" style="enable-background:new -333.6 938 638.2 638.2;" xml:space="preserve">
<style type="text/css">
	.st0{fill:#FFFFFF;}
</style>
<g>
	<path class="st0" d="M114.4,1173.1c-9.8,1.9-19.5,4.4-28.9,7.7c-3,1-6,5.3-6.7,8.6c-2.6,11.1-4.2,22.5-6.2,33.7
		c-0.2,1.2,0,2.6,0,4.8c3.3-0.2,6.2-0.1,9-0.4c5.1-0.7,10.2-2,15.3-2.2c9.1-0.4,12.9-3.2,15.3-12c2.9-10.4,5.9-20.8,9.3-31.1
		C124,1174.4,122.2,1171.5,114.4,1173.1z"/>
	<path class="st0" d="M21,1408c0.4,3.9,2.3,5.4,5.9,5c4.3-0.4,8.5-1.1,12.8-1.6c9.4-0.9,18.9-1.5,28.3-2.6c8.1-1,16.2-2.6,24.2-3.8
		c5.5-0.8,11-1.7,16.6-2.3c5.6-0.6,8.4-3,9.4-8.3c2.2-12,4.6-23.9,6.7-35.9c1.4-7.7,2.4-15.6,3.6-23.8c-1.3-0.2-1.8-0.4-2.3-0.4
		c-9.4,0.6-18.9,1.2-28.3,2c-11.6,1-23.2,1.9-34.7,3.4c-12.6,1.7-25.2,4-37.7,6.5c-3.7,0.7-7.5,2.7-8.1,6.9c-0.7,4.6-0.7,9.4-0.3,14
		C18.2,1380.8,19.8,1394.4,21,1408z"/>
	<path class="st0" d="M-14.5,938c-176.2,0-319.1,142.9-319.1,319.1c0,176.2,142.9,319.1,319.1,319.1s319.1-142.9,319.1-319.1
		S161.7,938-14.5,938z M-180.6,1326.2c-5.1,14.3-12,28.1-19.1,41.6c-4.8,9.1-12.4,16.3-21.9,20.7c-6.1,2.8-11.4,2.6-17.6-5
		c-7.5-9.3-13.6-19.5-17.3-30.9c-1.2-3.9-0.7-7.5,2.1-10.5c9.2-10,14.8-22,20-34.3c5-12,9.4-24.3,14-36.4
		c5.6-14.6,9.8-29.6,11.3-45.2c1.1-12.3,2.1-24.6,3.1-36.9c0.5-6.1,1.1-7.3,7.2-6.4c11.7,1.8,23.4,4.2,35,6.3c4.7,0.8,6.3,4,6.5,8.3
		c0.4,7.3,0.7,14.7,1,22c0.3,16.1-1.9,31.8-6.4,47.2C-168.5,1286.6-173.7,1306.8-180.6,1326.2z M218.2,1285.2
		c-7.9-0.8-15.9-2.3-23.5-4.7c-11.9-3.7-23.9-6.2-36.3-6.5c-11.5-0.2-23,0.3-34.5,1.2c-12.4,1-24.8,2.5-37.2,4.2
		c-12.6,1.7-25.2,3.8-37.8,5.9c-12.6,2.2-25,5.3-37.6,6.8c-7.2,0.9-14.6-0.3-21.9-1c-5.7-0.6-11.3-1.9-17.9-3.1
		c3,6.9,5.4,13.1,8.6,18.9c1.7,3.1,5.4,3.3,8.9,2.7c14.4-2.3,28.9-4.5,43.3-6.7c7.6-1.2,15.3-2.6,22.9-3.6
		c12.5-1.7,25.1-3.1,37.6-4.7c8.3-1.1,16.4-2.8,24.7-3.7c11.5-1.3,23.2-3.2,34.7-0.4c4,0.9,8,2.7,11.2,5.2
		c6.5,5.1,12.4,11,18.7,16.4c8.6,7.4,8.7,16.9,6.5,26.9c-2.6,11.6-5.3,23.2-8.1,34.7c-2.6,10.8-5.4,21.6-8,32.5
		c-2.4,10-4.6,20-6.9,30.1c-0.8,3.4-1.4,6.8-2.4,10c-0.2,0.8-1.8,1.6-2.8,1.6c-10.2,0.1-20.5-0.3-30.7,0c-7.2,0.2-14.3,1.3-21.5,1.9
		c-9.4,0.8-18.9,1.3-28.3,2.3c-10.3,1.1-20.5,2.6-30.8,3.8c-4.3,0.5-8.5,0.9-12.8,1.5c-8.5,1.2-16.3,4-23.3,9.1
		c-6.3,4.6-13.2,3.8-19.5,0c-9.9-5.9-19-12.9-25.5-22.6c-1.8-2.7-3.1-6.3-3.1-9.5c0.1-17.8,0.6-35.5,1-53.2
		c0.2-6.8,0.6-13.5,0.8-20.3c0.3-11.4-6.7-18.8-15.8-21.2c-12.6-3.3-20.1-11.6-25-23.3c-4.2-10-9.2-19.8-13.8-29.6
		c-0.2-0.5-0.7-0.8-1-1.3c-0.4,0-0.9,0-1.3,0c-0.4,6-1,12.1-1.3,18.1c-1.2,21.3-2.4,42.6-3.6,63.9c-1.2,21.4-1.9,42.9-3.6,64.2
		c-0.7,8.1-2.5,16.5-5.7,24c-5.1,12-9.7,11.4-18.9,6.7c-14.7-7.4-24.4-19.7-30.5-35.2c-4.7-12-1.8-24.2-1.8-36.3
		c0-7.3,0.7-14.7,1-22c0.7-15.4,1.3-30.8,2.1-46.2c1.3-23.1,2.7-46.3,4.2-69.4c0.9-14.8,2.4-29.6,2.9-44.4c0.5-15.4,0.3-30.9,0-46.3
		c-0.2-9.5-1.3-18.9-2-28.4c-0.5-6.2-0.9-12.3-1.5-18.4c-0.8-8.1-4.3-15-9.1-21.5c-4.2-5.8-8.5-11.5-12.5-17.5
		c-0.7-1.1-0.7-3.4,0-4.5c8-12.4,19.4-19.3,34.2-18.6c11,0.5,22.1,1.6,32.9,3.7c7.1,1.3,11.4,7.3,14.5,13.8
		c4.1,8.6,3.1,17.7,2.8,26.8c-0.3,10.2-0.9,20.4-1.5,30.6c-1.1,22.4-2.4,44.9-3.4,67.3c-0.3,5.7,0,11.5,0,17.9
		c14.1-5,21.7,5.1,30.3,12.5c8.9,7.6,18,14.8,29.5,17.8c5.2,1.3,10.8,2.2,16.2,1.9c8.6-0.5,17.1-2.2,25.6-3.2c3.9-0.5,5.2-3,5.8-6.3
		c2-9.7,4.1-19.3,6.1-29c0.5-2.5,0.9-5,1.6-8.5c-5.3,1-10.2,1.1-14.6,2.8c-11.1,4.2-19.9,0.5-27.7-7.2c-8.8-8.6-17.5-17.3-26.2-25.9
		c-0.6-0.6-1.4-1.3-1.6-2c-0.6-2.3-1.9-5.3-1.1-7c1.5-3,5.1-3.5,8.4-2.6c9.6,2.5,19.5,4.1,29.4,3.4c6.7-0.5,13.4-1.6,20-2.9
		c6.1-1.3,12.2-2.9,18-5c4.6-1.7,6.8-5.8,7.7-10.7c1.2-6.2,2.6-12.4,3.8-18.5c0.2-1.1,0-2.3,0-4c-3.6,0.3-7,0.5-10.4,0.9
		c-11.1,1.2-22.2,2.5-33.3,3.5c-7.6,0.7-14.4-2-20.6-6.2c-4.3-2.9-8.6-5.7-12.8-8.6c-10.7-7.5-14.2-18.3-13.7-30.8
		c0.1-2.9,4.4-5.6,8.4-4.9c4.8,0.8,9.6,1.7,14.2,3.2c11.4,3.8,22.9,4.5,34.5,2c7.4-1.6,14.5-4.5,21.7-6.8
		c10.6-3.4,21.2-6.9,31.8-10.3c8-2.6,15.9-5.5,23.9-7.9c14.8-4.5,29.5-9.6,45.3-8.7c17.7,1,29.6,10.4,36.3,26.5
		c1.9,4.6,3.9,9.3,5.1,14.1c0.9,3.4,1,7.1,0.9,10.6c-0.2,3.4-5.7,4.6-10.6,3.2c-7.8-2.2-15.7-4.1-23.6-5.7
		c-8.4-1.6-16.5,1.1-24.7,2.6c-3.2,0.6-6.3,2-9.5,2.6c-7.6,1.3-10.4,6.6-11.3,13.3c-1,7.1-1.6,14.2-2.4,21.4c-0.1,0.7,0,1.4,0,2.3
		c3.5-0.3,6.8-0.2,10-0.8c7.6-1.3,15.2-3.2,22.8-4.1c12.2-1.5,24.6-3.8,36.8-0.6c2.6,0.7,5.2,2.4,7.2,4.2
		c11.6,10.5,17.4,27.5,12.8,42.7c-4.3,14.2-8.8,28.4-13.2,42.5c-1.4,4.5,0.5,7.7,5.6,10.6c14.2,8,28.4,16,42.4,24.4
		c6.9,4.2,12,10,13.8,18.4C229.4,1280.5,225.7,1286,218.2,1285.2z"/>
</g>
</svg>
