<?xml version="1.0" encoding="utf-8"?>
<!-- Generator: Adobe Illustrator 19.0.0, SVG Export Plug-In . SVG Version: 6.00 Build 0)  -->
<svg version="1.1" id="Calque_1" xmlns="http://www.w3.org/2000/svg" xmlns:xlink="http://www.w3.org/1999/xlink" x="0px" y="0px"
	 viewBox="0 0 166.8 142.7" style="enable-background:new 0 0 166.8 142.7;" xml:space="preserve">
<style type="text/css">
	.st0{fill:#FFFFFF;}
</style>
<path class="st0" d="M96.4,32.6c-0.4-0.3-0.8-0.2-1.2-0.2c-11.7,0-23.4,0.1-35.2,0.1c-0.8,0-1.4,0.2-1.9,0.8
	c-4.7,4.7-9.4,9.4-14.2,14.1C34.7,56.8,25.3,66.1,16,75.3c-0.3,0.3-0.6,0.8-1.2,0.9c0-1.1,0.4-2,0.6-3c1.6-6.7,3.3-13.5,5-20.2
	c1.3-5.1,2.6-10.3,3.9-15.4c1.3-5.2,2.5-10.4,3.8-15.5c1.2-4.8,2.4-9.6,3.6-14.5c0.5-2,1-4,1.5-6c0.3-1.1,0.3-1.1,1.5-1.1
	c9.8,0,19.7-0.1,29.5-0.1c22.3-0.1,44.6-0.1,67-0.2C142.6,0.1,154,0,165.4,0c0.4,0,0.9-0.1,1.3,0.1c0.2,0.4-0.1,0.5-0.3,0.7
	c-3.2,3.7-6.4,7.4-9.6,11.2c-5.3,6.1-10.5,12.2-15.8,18.4c-5.1,5.9-10.2,11.9-15.3,17.8c-7.1,8.2-14.1,16.4-21.2,24.6
	c-0.6,0.7-0.7,1.3-0.3,2.1c1.3,2.8,2.6,5.6,3.8,8.4c0.2,0.4,0.4,0.8,0.5,1.2c0.4,1,0.4,1-0.7,1c-4.4,0-8.8,0-13.1-0.1
	c-0.9,0-1.5,0.3-2.1,0.9c-4.5,5.2-9,10.4-13.5,15.6c-1.9,2.2-3.7,4.3-5.6,6.4c-0.4,0.4-0.8,0.8-1.1,1.4c0.4,0.3,0.7,0.2,1.1,0.2
	c7,0.1,14,0.2,21.1,0.3c0.9,0,1.6-0.2,2.4-0.8c9-7.8,18.1-15.5,27.2-23.2c7.6-6.5,15.2-13,22.8-19.5c0.7-0.6,1.3-1.2,2-1.7
	c0.3-0.2,0.5-0.5,0.9-0.5c0.3,0.3,0.1,0.6,0,0.9c-1.5,4.4-3,8.8-4.5,13.2c-2,5.8-4,11.7-6,17.5c-2.9,8.6-5.9,17.1-8.8,25.7
	c-2.2,6.5-4.5,13-6.7,19.6c-0.4,1.3-0.4,1.3-1.9,1.3c-37.6,0-75.2,0-112.9,0c-2.7,0-5.4,0-8.1,0c-0.4,0-0.8,0.1-1.2-0.1
	c-0.2-0.4,0.2-0.6,0.4-0.8c3-3.5,6.1-6.9,9.1-10.4c5-5.7,9.9-11.4,14.9-17c4.7-5.4,9.5-10.8,14.2-16.2c6.6-7.5,13.2-15,19.7-22.6
	c0.1-0.1,0.2-0.2,0.2-0.3c1.7-2,1.6-1.3,0.4-3.7c-2.1-4-4.3-8-6.4-12c-0.7-1.4-0.7-1.4,0.8-1.4c6.2-0.1,12.4-0.1,18.7-0.2
	c1,0,1.6-0.3,2.3-1c5.6-6.3,11.3-12.5,17-18.7c1.5-1.7,3.1-3.4,4.6-5.1C96.2,33.1,96.4,33,96.4,32.6z"/>
</svg>
