<?xml version="1.0" encoding="utf-8"?>
<!-- Generator: Adobe Illustrator 19.0.0, SVG Export Plug-In . SVG Version: 6.00 Build 0)  -->
<svg version="1.1" id="Calque_1" xmlns="http://www.w3.org/2000/svg" xmlns:xlink="http://www.w3.org/1999/xlink" x="0px" y="0px"
	 viewBox="0 0 144.9 144.9" style="enable-background:new 0 0 144.9 144.9;" xml:space="preserve">
<style type="text/css">
	.st0{fill:#FFFFFF;}
</style>
<path class="st0" d="M28.4,50.5c13.1-2.8,23.3-10.1,31.2-20.9c2.8-3.9,5.7-8.4,3.1-13.3c-2.6-5-7.8-3.3-12.1-3.2c-0.2,0-0.3,0-0.5,0
	c-14.5,5.2-26.5,13.3-33,27.9C16.8,49.1,20.3,52.2,28.4,50.5z"/>
<path class="st0" d="M73,0C33-0.2,0.1,32.3,0,72.2c-0.1,39.8,32.5,72.6,72.1,72.7c39.8,0.1,72.6-32.4,72.8-72
	C145,33.1,112.6,0.2,73,0z M16.9,41c6.5-14.6,18.5-22.7,33-27.9c0.2,0,0.3,0,0.5,0c4.4-0.1,9.5-1.8,12.1,3.2c2.6,5-0.3,9.4-3.1,13.3
	c-7.8,10.7-18.1,18-31.2,20.9C20.3,52.2,16.8,49.1,16.9,41z M90.5,69.1c-2.5,2.4-5.1,4.8-7.6,7.2c-0.2,0.2-0.2,0.5-0.2,0.7
	c0.7,4.6,1.5,9.1,2.2,13.7c0,0.1,0,0.2,0.1,0.4c-1.4-0.7-2.8-1.4-4.1-2.1c-3-1.5-5.9-3-8.9-4.5c-0.3-0.2-0.5-0.2-0.8,0
	c-3.4,1.7-6.8,3.5-10.1,5.2c-1,0.5-2,1-3.1,1.6c0.4-2.2,0.8-4.3,1.2-6.5c0.5-2.6,1-5.1,1.5-7.7c0.1-0.4-0.1-0.6-0.3-0.8
	c-3.5-3.3-6.9-6.5-10.4-9.9c1.8-0.3,3.6-0.6,5.3-0.8c3.1-0.5,6.1-0.9,9.2-1.4c0.4-0.1,0.7-0.3,0.9-0.7c1.6-3,3.1-6,4.7-9.1
	c0.6-1.1,1.2-2.2,1.7-3.3c0.1-0.1,0.1-0.2,0.2-0.4c0.6,1.3,1.3,2.6,1.9,3.8c1.5,3,3,6,4.5,9c0.1,0.3,0.3,0.4,0.6,0.5
	c2.3,0.3,4.7,0.6,7,0.9c2.5,0.3,5,0.7,7.6,1C92.6,67.1,91.6,68.1,90.5,69.1z"/>
</svg>
