<?xml version="1.0" encoding="utf-8"?>
<!-- Generator: Adobe Illustrator 19.0.0, SVG Export Plug-In . SVG Version: 6.00 Build 0)  -->
<svg version="1.1" id="Calque_1" xmlns="http://www.w3.org/2000/svg" xmlns:xlink="http://www.w3.org/1999/xlink" x="0px" y="0px"
	 viewBox="200.4 357.7 191.7 126.5" style="enable-background:new 200.4 357.7 191.7 126.5;" xml:space="preserve">
<style type="text/css">
	.st0{fill:#FA8600;}
</style>
<g>
	<path class="st0" d="M299.9,442.6c-10.4,6.4-17,15.5-23,27.4c-0.4-8.3-0.7-14.8-1.1-22c-6.3,6.1-6.6,13.5-7.3,23.6
		c-3.5-7.2-5.9-11.9-9.4-18.9c-4,10.6-2,18.4,2.7,25.4c-6.9,0-13.7,0-23.2,0c6.3-3.9,10.4-6.5,15-9.4c-15.5-8.6-31.9-12.5-53.2-16.4
		c17-3.8,29.7-6.6,42.8-9.5c-12.3-11.6-24.5-23.4-42.3-30.3c18-4.2,34.2-11.6,57.7-0.2c-10.9-9.7-16.7-15-23-20.6
		c5.3-0.9,10.3-1.8,16-2.8c-5.5-7.4-10.7-14.2-16.7-22.3c20.6,4.4,40.6,6.4,54.5,29.6c-2.9-15.7-4.9-26.8-7-38.5
		c12.6,12,17.6,27.6,23.7,43.2c13.1,2.9,24.4,8.9,29.4,22.8c14.8-2.9,29.3-2.7,44.1-0.1c-9.8,5.3-19.2,10.3-29.7,16
		c14.5,1.2,27.1,2.2,42.2,3.5c-16.8,7.9-31.1,14.5-47.2,22c4.9,0.8,7.6,1.3,12.1,2c-11,5.1-20.4,9.4-37.1,17.1
		c15.2-11.4,17-20.3,14.3-31.9c-4.5,4-8.2,7.4-11.7,10.6c-1.2-5.4-2.5-11.1-3.7-16.7c-4.9,9.3-9.5,17.8-17.7,33.2
		C304.8,461.9,303.6,452.3,299.9,442.6z"/>
</g>
</svg>
